<?xml version="1.0" encoding="UTF-8" standalone="no"?>
<!-- Created with Inkscape (http://www.inkscape.org/) -->

<svg
   width="232.87836mm"
   height="248.40353mm"
   viewBox="0 0 232.87836 248.40353"
   version="1.1"
   id="svg5"
   xml:space="preserve"
   xmlns="http://www.w3.org/2000/svg"
   xmlns:svg="http://www.w3.org/2000/svg"><defs
     id="defs2" /><g
     id="layer1"
     transform="translate(-237.06667,-146.05)"><path
       id="rect8168-52"
       style="fill:#000000;fill-opacity:1;stroke-width:383.191;stroke-linecap:round;stroke-linejoin:round;paint-order:stroke fill markers"
       d="m 244.8292,146.05 v 93.15134 h -7.76253 v 147.48969 h 7.76253 v 7.7625 h 69.8635 v -7.7625 h 15.52531 v 7.7625 h 54.3382 v -7.7625 h 7.76265 v 7.7625 h 46.57567 v -7.7625 h 15.52519 v -7.76267 h 7.76264 v -7.76267 h 7.76267 v -54.33817 h -7.76267 v -7.76267 h -7.76264 v -7.76266 h -15.52519 v -7.76251 h -15.52517 v -15.52533 h 7.76252 v 7.76267 h 7.76265 v -7.76267 -23.28784 h 15.52519 v -7.7625 h -15.52519 v -7.76267 h 7.76267 v -7.76266 h 7.76252 v -23.28784 h -7.76252 v -7.7625 h -7.76267 v -7.76267 h -15.52517 v -7.76266 h -23.28784 v -15.52517 h 23.28784 v 11.64393 3.88124 h 31.05036 v -23.28784 h -7.76252 v -7.7625 H 431.13188 V 146.05 h -38.81302 v 7.76267 h -15.52517 v 7.7625 h -7.76267 v 31.0505 h 7.76267 v 7.76267 h 15.52517 v 7.7625 h 23.28783 v 7.76267 h 7.76267 v 7.76267 h -23.28784 v -7.76267 h -7.76266 v -7.76267 h -23.28784 v 23.28784 h 7.76267 v 7.76266 h 7.76252 v 7.76267 h -7.76252 v -7.76267 H 361.26838 V 146.05 h -31.05037 v 7.76267 h -7.76266 v 15.52517 h -7.76265 v 15.52517 h -7.76252 v 15.52533 h -7.76267 v -15.52533 h -7.76264 v -15.52517 h -7.76253 v -15.52517 h -7.76266 V 146.05 Z m 209.59052,108.67651 v 7.76267 h 7.76264 v -7.76267 z m 7.76264,7.76267 v 23.28784 h 7.76267 v -23.28784 z m 0,23.28784 h -23.28783 v 7.76266 h 23.28783 z M 275.87968,215.91351 h 7.76266 v 15.52517 h 7.76253 v 7.76266 h -15.52519 z m 46.57567,0 h 7.76266 v 23.28783 h -7.76266 v 7.76267 h -7.76265 v -15.52533 h 7.76265 z m -46.57567,77.62617 h 15.52519 v 38.81301 h 7.76264 v 7.76267 h -23.28783 z m 77.62617,0 h 7.76253 v 7.76251 h 7.76264 v 7.76266 h 7.76267 v 7.76267 h 7.76252 v 7.7625 h -15.52519 v 7.76267 h -7.76264 v 7.76267 h -7.76253 z" /><g
       id="g4763"
       transform="matrix(14.669503,0,0,14.669503,-3240.5835,-1996.431)"><path
         id="rect3814"
         style="opacity:1;fill:#c0c0c0;fill-opacity:1;stroke-width:8.475;stroke-linecap:round;stroke-linejoin:round;paint-order:stroke fill markers"
         d="M 238.125,146.57917 V 152.4 h 0.52917 v -4.23333 h 0.52916 v 0.52916 h 0.52917 v 1.05834 h 0.52917 v 1.05833 h 0.52916 v 1.05833 H 241.3 V 152.4 h 0.52917 v -0.52917 h 0.52916 v -1.05833 h 0.52917 v -1.05833 h 0.52917 v -1.05834 h 0.52916 V 152.4 h 0.52917 v -5.82083 h -1.05833 v 1.05833 h -0.52917 v 1.05833 h -0.52917 v 1.05834 h -0.52916 v 1.5875 H 241.3 v -1.05834 h -0.52917 V 149.225 h -0.52916 v -1.05833 h -0.52917 v -1.05834 h -0.52917 v -0.52916 z m 9.525,0 v 0.52916 h 2.11667 v -0.52916 z m 2.11667,0.52916 v 0.52917 h 0.52916 v 0.52917 h 0.52917 v -1.05834 z m -2.11667,0 h -1.05833 v 2.11667 h 0.52916 v -1.5875 H 247.65 Z m 0,2.11667 v 0.52917 h 1.5875 V 149.225 Z m 1.5875,0.52917 v 0.52916 h 0.52917 v 0.52917 h 0.52916 v 0.52917 h -0.52916 v 0.52916 H 247.65 v -1.05833 h -1.05833 v 1.05833 h 0.52916 V 152.4 h 3.175 v -0.52917 h 0.52917 v -1.5875 h -0.52917 v -0.52916 z" /><path
         id="rect4301"
         style="opacity:1;fill:#808080;fill-opacity:1;stroke-width:8.475;stroke-linecap:round;stroke-linejoin:round;paint-order:stroke fill markers"
         d="m 239.18333,146.57917 v 0.52916 h 0.52917 v -0.52916 z m 5.29167,0 V 152.4 h 0.52917 v -5.82083 z m 5.29167,0 v 0.52916 h 0.52916 v -0.52916 z m -2.11667,0.52916 v 0.52917 h 0.52917 v -0.52917 z m 0,0.52917 h -0.52917 v 1.5875 h 1.05834 v -0.52917 H 247.65 Z m 3.175,-0.52917 v 1.05834 h 0.52917 v -1.05834 z m -11.1125,0.52917 v 0.52917 h 0.52917 v -0.52917 z m -1.05833,0.52917 V 152.4 h 0.52916 v -3.175 h 0.52917 v -0.52917 h -0.52917 v -0.52916 z m 1.5875,0.52916 v 0.52917 h 0.52916 v -0.52917 z m 3.175,0 v 0.52917 h 0.52916 v -0.52917 z m 5.82083,0.52917 v 0.52917 h 0.52917 V 149.225 Z m -8.46667,0.52917 v 0.52916 H 241.3 v -0.52916 z m 9.525,0 v 0.52916 h 0.52917 v -0.52916 z m 0.52917,0.52916 v 1.5875 h 0.52917 v -1.5875 z m 0,1.5875 h -0.52917 V 152.4 H 250.825 Z M 241.3,150.8125 v 0.52917 h 0.52917 v -0.52917 z" /></g><g
       id="g8112"
       transform="matrix(14.669503,0,0,14.669503,-3240.5835,-1996.431)"><g
         id="g6020"><path
           id="rect5543"
           style="opacity:1;fill:#ff0000;fill-opacity:1;stroke-width:8.475;stroke-linecap:round;stroke-linejoin:round;paint-order:stroke fill markers"
           d="m 237.59583,152.92917 v 8.99583 h 0.52917 v -0.52917 h 4.23333 v -0.52916 h 0.52917 v -0.52917 h 0.52917 v -1.05833 h 0.52916 V 158.75 h 0.52917 v -3.70417 h -1.05833 V 158.75 h -0.52917 v 0.52917 h -0.52917 v 0.52916 h -3.175 v -5.29166 H 241.3 v -1.05834 h 0.52917 v -0.52916 z" /><path
           id="rect5821"
           style="opacity:1;fill:#800000;fill-opacity:1;stroke-width:8.475;stroke-linecap:round;stroke-linejoin:round;paint-order:stroke fill markers"
           d="m 241.82917,152.92917 v 0.52916 h 0.52916 v -0.52916 z m 0,0.52916 H 241.3 v 0.52917 h 0.52917 z m -2.64584,1.05834 v 1.05833 h 1.5875 v -0.52917 H 241.3 v -0.52916 z m 4.7625,4.23333 v 0.52917 H 244.475 V 158.75 Z m 0,0.52917 h -0.52916 v 1.05833 h 0.52916 z m -1.5875,1.5875 v 0.52916 H 238.125 v 0.52917 h -0.52917 v 0.52917 h 4.7625 V 161.925 h 0.52917 v -1.05833 z" /></g><g
         id="g6557"><path
           id="rect6074"
           style="opacity:1;fill:#ffff00;fill-opacity:1;stroke-width:8.475;stroke-linecap:round;stroke-linejoin:round;paint-order:stroke fill markers"
           d="m 247.12083,152.92917 v 0.52916 h -0.52916 v 0.52917 h -0.52917 v 2.11667 h 0.52917 v 0.52916 h 0.52916 v -1.5875 H 247.65 v -0.52916 h 3.175 v 0.52916 h 1.05833 v -0.52916 h 0.52917 v -0.52917 h -0.52917 v -0.52917 H 250.825 v -0.52916 z m 2.64584,3.70416 v 1.05834 h 0.52916 v 0.52916 h 0.52917 v 1.05834 h -0.52917 v 0.52916 h -2.11666 v -0.52916 H 247.65 V 158.75 h -1.5875 v 0.52917 h 0.52917 v 1.05833 h 0.52916 v 0.52917 h 1.05834 v 0.52916 h 2.64583 v -0.52916 h 0.52917 v -0.52917 h 0.52916 v -0.52917 h 0.52917 v -2.11666 h -0.52917 V 157.1625 H 250.825 v -0.52917 z" /><path
           id="rect6181"
           style="opacity:1;fill:#808000;fill-opacity:1;stroke-width:8.475;stroke-linecap:round;stroke-linejoin:round;paint-order:stroke fill markers"
           d="m 250.29583,154.51667 v 0.52916 h 0.52917 v -0.52916 z m 0.52917,0.52916 v 0.52917 h 1.5875 v -1.05833 h -0.52917 v 0.52916 z m -4.7625,1.05834 v 0.52916 h 0.52917 v -0.52916 z m 0.52917,0.52916 v 0.52917 h 0.52916 v -0.52917 z m 3.175,1.05834 v 0.52916 h 0.52916 v -0.52916 z m 0.52916,0.52916 V 158.75 h 0.52917 v -0.52917 z m -4.23333,1.05834 v 1.5875 h 0.52917 v 0.52916 h 0.52916 V 161.925 H 247.65 v 0.52917 h 3.175 V 161.925 h 1.05833 v -0.52917 h 0.52917 v -1.05833 -0.52917 h -0.52917 v 0.52917 h -0.52916 v 0.52917 H 250.825 v 0.52916 h -2.64583 v -0.52916 h -1.05834 v -0.52917 h -0.52916 v -1.05833 z" /></g><g
         id="g8097"><g
           id="g8089"><path
             id="rect7672"
             style="opacity:1;fill:#0000ff;fill-opacity:1;stroke-width:8.475;stroke-linecap:round;stroke-linejoin:round;paint-order:stroke fill markers"
             d="m 242.8875,152.92917 v 0.52916 h -0.52917 v 0.52917 h -0.52916 v 1.05833 H 241.3 V 158.75 h 1.05833 v -3.70417 h 0.52917 v -0.52916 h 2.64583 v -1.05834 h 0.52917 v -0.52916 z m 5.29167,2.11666 v 3.70417 0.52917 h 0.52916 V 158.75 h 0.52917 v -3.70417 z m -3.70417,4.7625 v 0.52917 h -0.52917 v 0.52917 h -0.52916 v 0.52916 h 2.64583 v -0.52916 h -0.52917 v -0.52917 h -0.52916 v -0.52917 z" /><path
             id="rect7818"
             style="opacity:1;fill:#000080;fill-opacity:1;stroke-width:8.475;stroke-linecap:round;stroke-linejoin:round;paint-order:stroke fill markers"
             d="m 246.0625,152.92917 v 0.52916 h 0.52917 v -0.52916 z m 0,0.52916 h -0.52917 v 0.52917 h 0.52917 z m -1.05833,1.5875 v 0.52917 h 0.52916 v -0.52917 z m 2.64583,0 V 158.75 h 0.52917 v -3.70417 z m -5.29167,0.52917 v 2.64583 h 0.52917 V 155.575 Z m 1.05834,5.82083 v 1.05834 h 3.70416 V 161.925 h -0.52916 v -0.52917 z" /></g><g
           id="g7618"><path
             id="rect6611"
             style="opacity:1;fill:#ff00ff;fill-opacity:1;stroke-width:8.475;stroke-linecap:round;stroke-linejoin:round;paint-order:stroke fill markers"
             d="m 243.41667,152.92917 v 0.52916 h 0.52916 v -0.52916 z m 0.52916,0.52916 v 0.52917 h 0.52917 v -0.52917 z m 0.52917,0 h 0.52917 v -0.52916 H 244.475 Z m 0.52917,0 v 0.52917 h 0.52916 v -0.52917 z m 0.52916,0 h 0.52917 v -0.52916 h -0.52917 z m -0.52916,0.52917 H 244.475 v 0.52917 h 0.52917 z m -1.05834,0 h -0.52916 v 0.52917 h 0.52916 z m -0.52916,0 v -0.52917 h -0.52917 v 0.52917 z m -0.52917,0 h -0.52917 v 0.52917 h 0.52917 z m -0.52917,0.52917 h -0.52916 v 0.52916 h 0.52916 z m -0.52916,0.52916 H 241.3 v 0.52917 h 0.52917 z m 0,0.52917 v 0.52917 h 0.52916 V 155.575 Z m 0,0.52917 H 241.3 v 0.52916 h 0.52917 z m 0,0.52916 v 0.52917 h 0.52916 v -0.52917 z m 0,0.52917 H 241.3 v 0.52917 h 0.52917 z m 0,0.52917 v 0.52916 h 0.52916 v -0.52916 z m 0,0.52916 H 241.3 V 158.75 h 0.52917 z m 0,0.52917 v 0.52917 h 0.52916 V 158.75 Z m 6.35,-3.70417 v 0.52917 h 0.52916 v -0.52917 z m 0.52916,0.52917 v 0.52917 h 0.52917 V 155.575 Z m 0,0.52917 h -0.52916 v 0.52916 h 0.52916 z m 0,0.52916 v 0.52917 h 0.52917 v -0.52917 z m 0,0.52917 h -0.52916 v 0.52917 h 0.52916 z m 0,0.52917 v 0.52916 h 0.52917 v -0.52916 z m 0,0.52916 h -0.52916 V 158.75 h 0.52916 z m -3.70416,1.5875 v 0.52917 h 0.52916 v -0.52917 z m 0,0.52917 H 244.475 v 0.52917 h 0.52917 z m 0,0.52917 v 0.52916 h 0.52916 v -0.52916 z m -0.52917,0 h -0.52917 v 0.52916 h 0.52917 z" /><path
             id="rect7184"
             style="opacity:1;fill:#800080;fill-opacity:1;stroke-width:8.475;stroke-linecap:round;stroke-linejoin:round;paint-order:stroke fill markers"
             d="m 242.8875,154.51667 v 0.52916 h 0.52917 v -0.52916 z m 0,0.52916 h -0.52917 v 0.52917 h 0.52917 z m 2.11667,-0.52916 v 0.52916 h 0.52916 v -0.52916 z M 247.65,155.575 v 0.52917 h 0.52917 V 155.575 Z m -5.29167,0.52917 v 0.52916 h 0.52917 v -0.52916 z m 5.29167,0.52916 v 0.52917 h 0.52917 v -0.52917 z m -5.29167,0.52917 v 0.52917 h 0.52917 v -0.52917 z m 5.29167,0.52917 v 0.52916 h 0.52917 v -0.52916 z m -4.23333,3.70416 v 0.52917 h 0.52916 v -0.52917 z m 0.52916,0.52917 v 0.52917 H 244.475 V 161.925 Z m 0.52917,0 h 0.52917 v -0.52917 H 244.475 Z m 0.52917,0 v 0.52917 h 0.52916 V 161.925 Z m 0.52916,0 h 0.52917 v -0.52917 h -0.52917 z m 0.52917,0 v 0.52917 h 0.52917 V 161.925 Z" /></g></g></g></g></svg>
